<svg width="90" height="25" viewBox="0 0 90 25" fill="none" xmlns="http://www.w3.org/2000/svg">
<rect width="90" height="25" fill="white"/>
<path d="M21.0938 1.5625H3.90625C2.6123 1.5625 1.5625 2.6123 1.5625 3.90625V21.0938C1.5625 22.3877 2.6123 23.4375 3.90625 23.4375H21.0938C22.3877 23.4375 23.4375 22.3877 23.4375 21.0938V3.90625C23.4375 2.6123 22.3877 1.5625 21.0938 1.5625ZM13.2812 15.625H10.9375V17.9688C10.9375 18.3984 10.5859 18.75 10.1562 18.75H8.59375C8.16406 18.75 7.8125 18.3984 7.8125 17.9688V7.03125C7.8125 6.60156 8.16406 6.25 8.59375 6.25H13.2812C15.8643 6.25 17.9688 8.35449 17.9688 10.9375C17.9688 13.5205 15.8643 15.625 13.2812 15.625ZM13.2812 9.375H10.9375V12.5H13.2812C14.1406 12.5 14.8438 11.7969 14.8438 10.9375C14.8438 10.0781 14.1406 9.375 13.2812 9.375Z" fill="#F2AEAE"/>
<path d="M30.598 19.5V4.95455H35.7827C36.9143 4.95455 37.8518 5.16051 38.5952 5.57244C39.3385 5.98437 39.8949 6.54782 40.2642 7.26278C40.6335 7.97301 40.8182 8.7732 40.8182 9.66335C40.8182 10.5582 40.6312 11.3632 40.2571 12.0781C39.8878 12.7884 39.3291 13.3518 38.581 13.7685C37.8376 14.1804 36.9025 14.3864 35.7756 14.3864H32.2102V12.5256H35.5767C36.2917 12.5256 36.8717 12.4025 37.3168 12.1562C37.7618 11.9053 38.0885 11.5644 38.2969 11.1335C38.5052 10.7027 38.6094 10.2126 38.6094 9.66335C38.6094 9.11411 38.5052 8.62642 38.2969 8.20028C38.0885 7.77415 37.7595 7.44034 37.3097 7.19886C36.8646 6.95739 36.2775 6.83665 35.5483 6.83665H32.7926V19.5H30.598ZM46.2976 19.7415C45.6063 19.7415 44.9813 19.6136 44.4226 19.358C43.8639 19.0975 43.4212 18.7211 43.0945 18.2287C42.7725 17.7363 42.6115 17.1326 42.6115 16.4176C42.6115 15.8021 42.7299 15.2955 42.9666 14.8977C43.2034 14.5 43.523 14.1851 43.9254 13.9531C44.3279 13.7211 44.7777 13.5459 45.2749 13.4276C45.772 13.3092 46.2786 13.2192 46.7947 13.1577C47.4482 13.0819 47.9785 13.0204 48.3857 12.973C48.7929 12.9209 49.0888 12.8381 49.2734 12.7244C49.4581 12.6108 49.5504 12.4261 49.5504 12.1705V12.1207C49.5504 11.5005 49.3752 11.0199 49.0249 10.679C48.6792 10.3381 48.1631 10.1676 47.4766 10.1676C46.7616 10.1676 46.1982 10.3262 45.7862 10.6435C45.379 10.956 45.0973 11.304 44.9411 11.6875L42.9453 11.233C43.1821 10.5701 43.5277 10.035 43.9822 9.62784C44.4415 9.21591 44.9695 8.91761 45.5661 8.73295C46.1626 8.54356 46.79 8.44886 47.4482 8.44886C47.8838 8.44886 48.3454 8.50095 48.8331 8.60511C49.3255 8.70455 49.7848 8.8892 50.2109 9.15909C50.6418 9.42898 50.9946 9.81487 51.2692 10.3168C51.5438 10.8139 51.6811 11.4602 51.6811 12.2557V19.5H49.6072V18.0085H49.522C49.3847 18.2831 49.1787 18.553 48.9041 18.8182C48.6295 19.0833 48.2768 19.3035 47.8459 19.4787C47.415 19.6539 46.8989 19.7415 46.2976 19.7415ZM46.7592 18.0369C47.3464 18.0369 47.8482 17.9209 48.2649 17.6889C48.6863 17.4569 49.0059 17.1539 49.2237 16.7798C49.4463 16.401 49.5575 15.9962 49.5575 15.5653V14.1591C49.4818 14.2348 49.335 14.3059 49.1172 14.3722C48.9041 14.4337 48.6603 14.4882 48.3857 14.5355C48.111 14.5781 47.8435 14.6184 47.5831 14.6562C47.3227 14.6894 47.1049 14.7178 46.9297 14.7415C46.5178 14.7936 46.1413 14.8812 45.8004 15.0043C45.4643 15.1274 45.1944 15.3049 44.9908 15.5369C44.7919 15.7642 44.6925 16.0672 44.6925 16.446C44.6925 16.9716 44.8866 17.3693 45.2749 17.6392C45.6631 17.9044 46.1579 18.0369 46.7592 18.0369ZM54.5096 19.5V8.59091H56.5621V10.3239H56.6758C56.8746 9.73674 57.225 9.27509 57.7269 8.93892C58.2335 8.59801 58.8065 8.42756 59.4457 8.42756C59.5782 8.42756 59.7345 8.43229 59.9144 8.44176C60.0991 8.45123 60.2435 8.46307 60.3477 8.47727V10.5085C60.2624 10.4848 60.1109 10.4588 59.8931 10.4304C59.6753 10.3973 59.4575 10.3807 59.2397 10.3807C58.7378 10.3807 58.2904 10.4872 57.8974 10.7003C57.5091 10.9086 57.2013 11.1998 56.9741 11.5739C56.7468 11.9432 56.6332 12.3646 56.6332 12.8381V19.5H54.5096ZM64.1385 15.7997L64.1243 13.2074H64.4936L68.8402 8.59091H71.3828L66.4254 13.8466H66.0916L64.1385 15.7997ZM62.1854 19.5V4.95455H64.3089V19.5H62.1854ZM69.0746 19.5L65.1683 14.3153L66.6314 12.831L71.6811 19.5H69.0746ZM74.7173 19.6349C74.3291 19.6349 73.9953 19.4976 73.7159 19.223C73.4366 18.9437 73.2969 18.6075 73.2969 18.2145C73.2969 17.8262 73.4366 17.4948 73.7159 17.2202C73.9953 16.9408 74.3291 16.8011 74.7173 16.8011C75.1056 16.8011 75.4394 16.9408 75.7188 17.2202C75.9981 17.4948 76.1378 17.8262 76.1378 18.2145C76.1378 18.4749 76.0715 18.714 75.9389 18.9318C75.8111 19.1449 75.6406 19.3153 75.4276 19.4432C75.2145 19.571 74.9777 19.6349 74.7173 19.6349ZM78.9822 19.5V8.59091H81.1058V19.5H78.9822ZM80.0547 6.90767C79.6854 6.90767 79.3681 6.78456 79.103 6.53835C78.8426 6.2874 78.7124 5.98911 78.7124 5.64347C78.7124 5.29309 78.8426 4.99479 79.103 4.74858C79.3681 4.49763 79.6854 4.37216 80.0547 4.37216C80.424 4.37216 80.7389 4.49763 80.9993 4.74858C81.2644 4.99479 81.397 5.29309 81.397 5.64347C81.397 5.98911 81.2644 6.2874 80.9993 6.53835C80.7389 6.78456 80.424 6.90767 80.0547 6.90767ZM89.055 8.59091V10.2955H83.0962V8.59091H89.055ZM84.6942 5.97727H86.8178V16.2969C86.8178 16.7088 86.8794 17.0189 87.0025 17.2273C87.1256 17.4309 87.2842 17.5705 87.4783 17.6463C87.6772 17.7173 87.8926 17.7528 88.1246 17.7528C88.2951 17.7528 88.4442 17.741 88.5721 17.7173C88.6999 17.6937 88.7994 17.6747 88.8704 17.6605L89.2539 19.4148C89.1308 19.4621 88.9556 19.5095 88.7283 19.5568C88.5011 19.6089 88.217 19.6373 87.8761 19.642C87.3174 19.6515 86.7965 19.5521 86.3136 19.3438C85.8306 19.1354 85.44 18.8134 85.1417 18.3778C84.8434 17.9422 84.6942 17.3954 84.6942 16.7372V5.97727Z" fill="black"/>
</svg>
